<?xml version="1.0" encoding="UTF-8"?>
<svg version="1.1" xmlns="http://www.w3.org/2000/svg" width="1280" height="854">
<path d="M0 0 C422.4 0 844.8 0 1280 0 C1280 281.82 1280 563.64 1280 854 C857.6 854 435.2 854 0 854 C0 572.18 0 290.36 0 0 Z " fill="#FF0000" transform="translate(0,0)"/>
<path d="M0 0 C183.15 0 366.3 0 555 0 C555 112.53 555 225.06 555 341 C611.1 341 667.2 341 725 341 C725 228.47 725 115.94 725 0 C908.15 0 1091.3 0 1280 0 C1280 112.86 1280 225.72 1280 342 C857.6 342 435.2 342 0 342 C0 229.14 0 116.28 0 0 Z " fill="#FFFEFE" transform="translate(0,512)"/>
<path d="M0 0 C183.15 0 366.3 0 555 0 C555 112.53 555 225.06 555 341 C371.85 341 188.7 341 0 341 C0 228.47 0 115.94 0 0 Z " fill="#FFFEFE" transform="translate(725,0)"/>
<path d="M0 0 C183.15 0 366.3 0 555 0 C555 112.53 555 225.06 555 341 C371.85 341 188.7 341 0 341 C0 228.47 0 115.94 0 0 Z " fill="#FFFEFE" transform="translate(0,0)"/>
<path d="M0 0 C19.47 0 38.94 0 59 0 C58.3736577 5.63708074 57.71321796 11.19642163 56.87890625 16.796875 C56.66398606 18.25605633 56.44939863 19.71528671 56.23510742 21.17456055 C56.12492279 21.92297211 56.01473816 22.67138367 55.9012146 23.44247437 C53.87176677 37.268282 52.08456714 51.06250288 51 65 C60.00170018 64.01505966 69.00143845 63.01320564 78 62 C79.18916016 61.86658203 80.37832031 61.73316406 81.60351562 61.59570312 C84.96559065 61.21583967 88.32664454 60.82799071 91.6875 60.4375 C93.21588501 60.26577271 93.21588501 60.26577271 94.77514648 60.09057617 C99.06394357 59.5853167 103.2168338 59.01920178 107.39453125 57.91015625 C111 57 111 57 116 57 C116 76.47 116 95.94 116 116 C110.70628773 116 107.06639732 115.741892 102.0625 114.625 C85.56703904 111.14614303 68.78258496 110.1949139 52 109 C52.92794727 125.54650695 54.47482884 141.73415927 57.09765625 158.1015625 C57.93997474 163.38652906 58.54174681 168.66881456 59 174 C58.34257812 173.9292627 57.68515625 173.85852539 57.0078125 173.78564453 C48.45003856 172.96088617 39.96085448 172.8465434 31.37304688 172.86962891 C29.00384118 172.87499131 26.63482499 172.86965007 24.265625 172.86328125 C15.79385886 172.85996367 7.43391843 173.09252691 -1 174 C-0.87737793 173.29609131 -0.75475586 172.59218262 -0.62841797 171.86694336 C-0.06135305 168.58167193 0.4715002 165.29170552 1 162 C1.1124707 161.30245605 1.22494141 160.60491211 1.34082031 159.88623047 C4.01992393 143.00344942 5.51133009 126.01998066 7 109 C-7.44595462 109.94209071 -21.70631396 111.1318726 -35.96923828 113.64306641 C-39.05842596 114.18603255 -42.15290848 114.69182474 -45.25 115.1875 C-46.20390625 115.34605469 -47.1578125 115.50460937 -48.140625 115.66796875 C-51.44561978 116.05174547 -54.67578187 116.0537498 -58 116 C-57.9278125 114.97648438 -57.855625 113.95296875 -57.78125 112.8984375 C-57.10600667 102.41053894 -56.89045296 91.94680017 -56.875 81.4375 C-56.87048828 80.16632324 -56.86597656 78.89514648 -56.86132812 77.58544922 C-56.87225178 70.66076495 -57.12317611 63.87178269 -58 57 C-54.24946646 57.45403111 -50.4996884 57.9140454 -46.75 58.375 C-45.18378906 58.56449219 -45.18378906 58.56449219 -43.5859375 58.7578125 C-38.4143407 59.39628124 -33.28506903 60.10806257 -28.15625 61.03125 C-21.05650822 62.24718279 -13.9330514 62.68463202 -6.75 63.125 C-5.40751617 63.21168517 -4.06506783 63.29892183 -2.72265625 63.38671875 C0.51792414 63.5965405 3.75874848 63.80086345 7 64 C6.07137313 47.54568877 4.20802705 31.39728782 1.67700195 15.12548828 C1.56706406 14.41517456 1.45712616 13.70486084 1.34385681 12.97302246 C1.04234874 11.03558293 0.73499251 9.09905608 0.42724609 7.16259766 C0 4 0 4 0 0 Z " fill="#FF0101" transform="translate(248,596)"/>
<path d="M0 0 C19.47 0 38.94 0 59 0 C58.3736577 5.63708074 57.71321796 11.19642163 56.87890625 16.796875 C56.66398606 18.25605633 56.44939863 19.71528671 56.23510742 21.17456055 C56.12492279 21.92297211 56.01473816 22.67138367 55.9012146 23.44247437 C53.87176677 37.268282 52.08456714 51.06250288 51 65 C60.00170018 64.01505966 69.00143845 63.01320564 78 62 C79.18916016 61.86658203 80.37832031 61.73316406 81.60351562 61.59570312 C84.96559065 61.21583967 88.32664454 60.82799071 91.6875 60.4375 C93.21588501 60.26577271 93.21588501 60.26577271 94.77514648 60.09057617 C99.06394357 59.5853167 103.2168338 59.01920178 107.39453125 57.91015625 C111 57 111 57 116 57 C116 76.47 116 95.94 116 116 C110.70628773 116 107.06639732 115.741892 102.0625 114.625 C85.56703904 111.14614303 68.78258496 110.1949139 52 109 C52.92794727 125.54650695 54.47482884 141.73415927 57.09765625 158.1015625 C57.93997474 163.38652906 58.54174681 168.66881456 59 174 C58.34257812 173.9292627 57.68515625 173.85852539 57.0078125 173.78564453 C48.45003856 172.96088617 39.96085448 172.8465434 31.37304688 172.86962891 C29.00384118 172.87499131 26.63482499 172.86965007 24.265625 172.86328125 C15.79385886 172.85996367 7.43391843 173.09252691 -1 174 C-0.87737793 173.29609131 -0.75475586 172.59218262 -0.62841797 171.86694336 C-0.06135305 168.58167193 0.4715002 165.29170552 1 162 C1.1124707 161.30245605 1.22494141 160.60491211 1.34082031 159.88623047 C4.01992393 143.00344942 5.51133009 126.01998066 7 109 C-7.44595462 109.94209071 -21.70631396 111.1318726 -35.96923828 113.64306641 C-39.05842596 114.18603255 -42.15290848 114.69182474 -45.25 115.1875 C-46.20390625 115.34605469 -47.1578125 115.50460938 -48.140625 115.66796875 C-51.44561978 116.05174547 -54.67578187 116.0537498 -58 116 C-57.9278125 114.97648437 -57.855625 113.95296875 -57.78125 112.8984375 C-57.10600667 102.41053894 -56.89045296 91.94680017 -56.875 81.4375 C-56.87048828 80.16632324 -56.86597656 78.89514648 -56.86132812 77.58544922 C-56.87225178 70.66076495 -57.12317611 63.87178269 -58 57 C-54.24946646 57.45403111 -50.4996884 57.9140454 -46.75 58.375 C-45.18378906 58.56449219 -45.18378906 58.56449219 -43.5859375 58.7578125 C-38.4143407 59.39628124 -33.28506903 60.10806257 -28.15625 61.03125 C-21.05650822 62.24718279 -13.9330514 62.68463202 -6.75 63.125 C-5.40751617 63.21168517 -4.06506783 63.29892183 -2.72265625 63.38671875 C0.51792414 63.5965405 3.75874848 63.80086345 7 64 C6.07137313 47.54568877 4.20802705 31.39728782 1.67700195 15.12548828 C1.56706406 14.41517456 1.45712616 13.70486084 1.34385681 12.97302246 C1.04234874 11.03558293 0.73499251 9.09905608 0.42724609 7.16259766 C0 4 0 4 0 0 Z " fill="#FF0101" transform="translate(248,84)"/>
<path d="M0 0 C19.47 0 38.94 0 59 0 C56.83642649 18.39037482 56.83642649 18.39037482 55.5 26.9375 C53.65120707 39.23026874 52.82095908 51.60307577 52 64 C68.67292535 63.20489847 84.85910272 61.66350947 101.27392578 58.67700195 C102.46099121 58.46132568 103.64805664 58.24564941 104.87109375 58.0234375 C105.91193115 57.82669434 106.95276855 57.62995117 108.02514648 57.42724609 C111.05875354 56.99156186 113.93970542 56.92519851 117 57 C116.9292627 57.59248535 116.85852539 58.1849707 116.78564453 58.79541016 C115.92701189 66.88828687 115.84715934 74.94226723 115.86962891 83.06933594 C115.87497438 85.36399999 115.86966075 87.65846697 115.86328125 89.953125 C115.85975409 98.68849023 116.16136168 107.29841104 117 116 C109.85309523 115.53455547 102.82556261 114.70329871 95.75 113.625 C81.24115769 111.43679012 66.61129848 110.27799208 52 109 C54.0105337 132.18856945 54.0105337 132.18856945 57.00830078 155.26513672 C57.95523363 161.4960313 58.59034367 167.70972342 59 174 C58.18877686 173.9292627 57.37755371 173.85852539 56.54174805 173.78564453 C47.68347422 173.07588493 38.90409352 172.84398868 30.02172852 172.86962891 C27.80413056 172.87502035 25.58673276 172.86962769 23.36914062 172.86328125 C15.53435405 172.86001062 7.79056094 173.08001177 0 174 C0.55038398 167.59699154 1.39246714 161.28337919 2.40917969 154.9387207 C4.84733346 139.64617859 6.13321447 124.45591353 7 109 C-18.43916448 110.96088393 -18.43916448 110.96088393 -43.66210938 114.72949219 C-44.55220703 114.89481445 -45.44230469 115.06013672 -46.359375 115.23046875 C-47.11702148 115.37895264 -47.87466797 115.52743652 -48.65527344 115.68041992 C-51 116 -51 116 -57 116 C-57 96.53 -57 77.06 -57 57 C-51.66958707 57.66630162 -46.35890152 58.37006224 -41.046875 59.15625 C-25.04515365 61.48800648 -9.20112618 63.77611509 7 64 C6.76658793 47.10945398 4.31837293 30.56191815 1.85002136 13.8840332 C1.1678442 9.26025787 0.58007875 4.64063 0 0 Z " fill="#FF0101" transform="translate(973,596)"/>
<path d="M0 0 C19.47 0 38.94 0 59 0 C56.83642649 18.39037482 56.83642649 18.39037482 55.5 26.9375 C53.65120707 39.23026874 52.82095908 51.60307577 52 64 C68.67292535 63.20489847 84.85910272 61.66350947 101.27392578 58.67700195 C102.46099121 58.46132568 103.64805664 58.24564941 104.87109375 58.0234375 C105.91193115 57.82669434 106.95276855 57.62995117 108.02514648 57.42724609 C111.05875354 56.99156186 113.93970542 56.92519851 117 57 C116.9292627 57.59248535 116.85852539 58.1849707 116.78564453 58.79541016 C115.92701189 66.88828687 115.84715934 74.94226723 115.86962891 83.06933594 C115.87497438 85.36399999 115.86966075 87.65846697 115.86328125 89.953125 C115.85975409 98.68849023 116.16136168 107.29841104 117 116 C109.85309523 115.53455547 102.82556261 114.70329871 95.75 113.625 C81.24115769 111.43679012 66.61129848 110.27799208 52 109 C54.0105337 132.18856945 54.0105337 132.18856945 57.00830078 155.26513672 C57.95523363 161.4960313 58.59034367 167.70972342 59 174 C58.18877686 173.9292627 57.37755371 173.85852539 56.54174805 173.78564453 C47.68347422 173.07588493 38.90409352 172.84398868 30.02172852 172.86962891 C27.80413056 172.87502035 25.58673276 172.86962769 23.36914062 172.86328125 C15.53435405 172.86001062 7.79056094 173.08001177 0 174 C0.55038398 167.59699154 1.39246714 161.28337919 2.40917969 154.9387207 C4.84733346 139.64617859 6.13321447 124.45591353 7 109 C-18.43916448 110.96088393 -18.43916448 110.96088393 -43.66210938 114.72949219 C-44.55220703 114.89481445 -45.44230469 115.06013672 -46.359375 115.23046875 C-47.11702148 115.37895264 -47.87466797 115.52743652 -48.65527344 115.68041992 C-51 116 -51 116 -57 116 C-57 96.53 -57 77.06 -57 57 C-51.66958707 57.66630162 -46.35890152 58.37006224 -41.046875 59.15625 C-25.04515365 61.48800648 -9.20112618 63.77611509 7 64 C6.76658793 47.10945398 4.31837293 30.56191815 1.85002136 13.8840332 C1.1678442 9.26025787 0.58007875 4.64063 0 0 Z " fill="#FF0101" transform="translate(973,84)"/>
</svg>
